<?xml version="1.0" standalone="no"?>
<!DOCTYPE svg PUBLIC "-//W3C//DTD SVG 20010904//EN"
 "http://www.w3.org/TR/2001/REC-SVG-20010904/DTD/svg10.dtd">
<svg version="1.0" xmlns="http://www.w3.org/2000/svg"
 width="1000.000000pt" height="1000.000000pt" viewBox="0 0 1000.000000 1000.000000"
 preserveAspectRatio="xMidYMid meet">
<metadata>
Created by potrace 1.14, written by Peter Selinger 2001-2017
</metadata>
<g transform="translate(0.000000,1000.000000) scale(0.100000,-0.100000)"
fill="#000000" stroke="none">
<path d="M0 5000 l0 -5000 5000 0 5000 0 0 5000 0 5000 -5000 0 -5000 0 0
-5000z m3470 4566 c-6 -20 -20 -41 -31 -46 -25 -14 -24 -5 1 22 11 12 20 29
20 38 0 9 3 20 7 23 13 14 15 -3 3 -37z m2753 -103 c15 -7 27 -20 27 -28 0
-23 -20 -18 -42 10 -11 14 -26 25 -33 25 -8 0 -17 5 -21 11 -8 13 25 4 69 -18z
m-2157 -51 c-20 -39 -274 -307 -321 -339 -20 -14 -56 -27 -79 -30 l-41 -4 41
19 c28 14 56 41 94 93 62 87 71 95 171 153 55 33 85 58 110 94 37 54 50 61 25
14z m1459 -268 l-7 -180 -55 53 c-31 29 -58 53 -62 53 -3 0 -12 4 -19 9 -11 6
4 42 65 159 92 176 89 180 78 -94z m-2728 152 c-3 -19 -30 -90 -60 -158 -61
-137 -82 -215 -93 -332 l-7 -79 -16 29 c-12 21 -16 53 -15 115 1 104 28 191
85 279 21 34 53 88 69 121 17 32 33 59 36 59 4 0 4 -15 1 -34z m493 -48 c49
-53 5 -174 -146 -399 -93 -139 -118 -188 -133 -257 -15 -71 -14 -107 4 -142
18 -35 33 -37 77 -10 36 22 73 26 83 10 3 -5 -16 -34 -44 -63 -82 -86 -101
-158 -56 -202 13 -14 20 -25 14 -25 -5 0 -21 11 -34 25 -36 35 -34 98 5 156
l29 44 -27 3 c-93 10 -124 99 -86 245 19 74 106 250 198 402 54 89 66 116 64
145 -3 30 -7 35 -30 38 -36 4 -93 -26 -158 -85 -36 -32 -49 -40 -41 -24 23 43
101 112 154 137 65 30 100 30 127 2z m3317 -28 c101 -51 263 -166 339 -240 31
-30 47 -57 59 -97 25 -84 30 -147 14 -160 -12 -9 -14 -1 -16 45 -2 42 -11 75
-40 132 -44 87 -103 140 -270 241 -114 69 -174 84 -217 55 -24 -15 -26 -15
-45 11 -26 31 -26 39 -3 52 35 21 81 11 179 -39z m1269 -126 c27 -55 31 -134
7 -142 -10 -3 -13 12 -13 52 0 63 -15 108 -57 163 l-27 38 32 -30 c18 -16 44
-53 58 -81z m-2442 -105 c20 -17 45 -46 57 -65 21 -34 21 -40 14 -297 -4 -144
-10 -291 -14 -326 l-6 -64 -39 58 c-75 113 -203 218 -300 245 -25 7 -46 14
-46 16 0 2 55 114 122 248 l122 244 28 -14 c15 -8 43 -28 62 -45z m2271 -255
c38 -59 48 -108 54 -274 5 -123 11 -173 23 -197 13 -26 14 -33 3 -33 -13 0
-65 54 -65 68 -1 4 -5 26 -9 49 -5 27 -3 76 5 130 18 126 4 192 -60 276 -20
26 -36 50 -36 53 0 10 69 -48 85 -72z m-3415 29 c184 -44 344 -148 441 -287
89 -126 147 -276 126 -324 -15 -33 -21 -27 -34 31 -7 28 -35 98 -63 153 -58
118 -110 173 -244 253 -114 69 -209 108 -297 122 -80 12 -285 7 -300 -8 -5 -5
11 -24 41 -47 28 -21 50 -40 50 -41 0 -2 -35 12 -78 30 -42 19 -99 40 -125 46
-26 7 -47 16 -47 19 0 3 30 16 68 27 164 52 315 61 462 26z m-2356 -52 c9 -10
22 -49 27 -86 6 -37 20 -92 30 -123 25 -73 25 -86 -1 -72 -37 20 -68 90 -75
170 -5 53 -13 81 -26 96 -10 11 -19 23 -19 27 0 15 48 6 64 -12z m2061 -180
c87 -18 88 -19 40 -21 -164 -6 -221 -13 -292 -36 -100 -33 -223 -114 -335
-222 -83 -80 -88 -83 -108 -69 -21 15 -19 18 92 112 207 177 348 255 463 254
28 0 91 -8 140 -18z m2320 2 c40 -40 49 -139 15 -173 -27 -27 -45 -26 -26 2
24 34 20 95 -9 145 -20 33 -22 43 -11 43 8 0 22 -7 31 -17z m-1116 -65 c106
-51 237 -197 276 -308 14 -40 10 -180 -5 -180 -4 0 -33 9 -65 20 -111 38 -222
54 -391 54 l-162 1 115 228 c130 261 109 245 232 185z m437 -305 c26 -75 37
-130 41 -195 4 -53 2 -89 -3 -86 -5 2 -42 19 -81 38 l-73 35 5 110 c3 61 8
157 11 215 l6 105 30 -58 c16 -32 45 -106 64 -164z m2698 201 c9 -23 7 -77 -3
-93 -5 -8 -16 -11 -26 -7 -15 5 -15 7 0 22 12 13 15 26 10 55 -7 39 7 55 19
23z m-354 -43 c17 -66 -20 -201 -55 -201 -19 0 -19 -2 5 45 22 44 27 133 9
167 -8 16 -8 22 2 29 19 11 27 3 39 -40z m-4172 -37 c97 -44 185 -108 257
-186 62 -66 142 -182 165 -238 13 -31 12 -34 -12 -54 -14 -12 -60 -50 -103
-85 l-77 -63 -50 48 c-63 62 -120 149 -194 296 -32 64 -60 115 -62 114 -7 -8
32 -136 63 -203 43 -94 85 -154 156 -228 l57 -60 -61 -77 -62 -77 -48 47 c-95
93 -168 235 -203 395 -18 85 -30 300 -20 379 l7 56 57 -15 c31 -8 90 -30 130
-49z m-523 -148 c53 -53 35 -126 -44 -180 -99 -67 -149 -135 -183 -247 -13
-46 -20 -48 -42 -13 -16 24 -16 29 5 92 12 37 30 83 40 103 25 50 91 105 149
124 59 20 84 46 76 78 -6 25 -43 47 -79 47 -12 0 -29 5 -37 10 -11 7 0 10 38
10 43 0 58 -5 77 -24z m4776 -168 c66 -62 227 -225 356 -362 l236 -248 -5 -62
c-10 -123 -81 -249 -218 -387 -138 -139 -274 -211 -400 -213 l-65 -1 2 29 c3
46 50 131 131 238 82 110 155 175 312 280 107 71 105 79 -7 28 -116 -53 -224
-137 -309 -241 -82 -100 -143 -198 -160 -255 l-14 -50 -317 318 c-174 175
-322 326 -327 335 -16 27 -11 179 8 264 46 202 195 335 461 414 44 13 106 24
137 24 l58 1 121 -112z m-2846 31 c198 -26 407 -122 675 -309 208 -145 271
-170 443 -176 133 -4 176 -13 261 -56 169 -85 256 -274 243 -532 -16 -336
-234 -660 -598 -888 -47 -30 -120 -70 -163 -89 -42 -19 -76 -38 -76 -43 0 -5
71 -81 158 -170 356 -366 465 -525 562 -823 62 -190 73 -251 73 -403 1 -163
-15 -258 -89 -537 -30 -113 -52 -208 -49 -211 3 -3 519 -53 1148 -110 628 -58
1144 -107 1146 -108 2 -2 0 -28 -3 -58 -5 -40 -19 -72 -51 -123 -25 -37 -45
-74 -45 -81 0 -7 16 -20 35 -29 23 -11 35 -23 35 -37 0 -12 -27 -305 -59 -651
l-59 -630 -61 -102 c-34 -55 -61 -106 -61 -112 0 -6 20 -42 45 -81 l44 -69
-24 -263 -25 -263 -77 -237 c-43 -131 -82 -237 -86 -238 -20 0 -17 36 6 93 23
56 30 103 61 450 l35 388 -44 69 c-25 39 -45 74 -45 80 0 5 28 55 61 111 l62
101 58 632 c32 347 59 640 59 652 0 13 -12 26 -35 37 -19 9 -35 22 -35 28 0 6
21 42 46 81 39 60 46 79 47 127 l2 55 -1110 103 c-2072 191 -2968 274 -3990
369 -561 52 -1265 117 -1565 144 -300 28 -549 52 -555 53 -5 2 72 13 172 25
l181 22 269 -25 c147 -13 297 -27 333 -30 181 -14 635 -56 710 -65 47 -5 285
-28 530 -49 245 -22 495 -45 555 -51 61 -6 164 -15 230 -20 66 -5 141 -12 166
-16 46 -6 47 -6 53 22 21 105 29 225 35 487 l6 298 35 -27 c40 -30 118 -66
133 -61 22 7 -107 104 -429 323 -540 369 -879 583 -1382 873 l-73 43 40 43
c85 92 121 205 121 384 0 97 3 118 21 147 l20 33 122 -63 c575 -300 1719 -876
1740 -876 25 0 -34 43 -148 107 -67 37 -374 196 -682 353 l-562 285 -22 80
c-22 82 -51 247 -69 391 -7 56 -7 105 0 155 23 162 133 417 243 564 172 231
480 428 777 496 106 25 319 28 475 8z m-2644 -125 c236 -44 412 -163 497 -333
54 -108 77 -210 63 -284 -12 -67 -182 -416 -367 -756 l-127 -233 -15 38 c-35
90 -148 210 -277 296 -137 90 -430 219 -468 205 -7 -2 67 -43 163 -90 96 -47
217 -113 269 -148 157 -104 271 -231 271 -303 0 -29 -11 -33 -93 -42 -135 -14
-354 38 -522 124 -75 38 -107 63 -195 151 -71 71 -116 126 -137 166 -50 97
-51 115 -7 193 84 150 407 707 486 837 94 155 87 149 225 179 90 19 134 19
234 0z m809 -240 c-46 -30 -115 -82 -155 -114 -40 -33 -75 -56 -79 -53 -30 31
45 97 196 173 55 27 105 50 110 50 6 0 -26 -25 -72 -56z m4032 -461 l45 -48
-21 -30 c-20 -28 -25 -30 -88 -30 -67 0 -67 0 -61 25 14 58 54 130 72 130 4 0
27 -21 53 -47z m-4234 -168 c139 -128 189 -335 120 -487 -33 -72 -98 -142
-163 -176 -46 -25 -59 -27 -175 -27 -97 0 -136 4 -172 18 -27 10 -48 23 -48
28 0 5 13 36 30 68 l29 59 103 -1 c114 -1 160 13 212 61 41 38 56 82 56 157 0
77 -29 147 -86 209 l-35 39 23 53 c13 30 28 54 35 54 6 0 38 -25 71 -55z
m4188 12 c-11 -7 -64 -49 -119 -94 -89 -74 -135 -101 -125 -74 2 6 45 48 96
95 82 77 96 86 130 85 33 0 35 -2 18 -12z m424 -224 l41 -47 -38 -23 c-44 -27
-125 -53 -165 -53 -25 0 -28 3 -28 34 0 18 -3 48 -6 65 -6 30 -6 31 32 31 22
1 55 9 74 20 19 11 38 19 42 20 3 0 25 -21 48 -47z m-657 3 c99 -41 187 -233
187 -407 l0 -89 -82 -93 c-104 -117 -739 -757 -750 -757 -5 0 -21 15 -36 33
-27 32 -177 195 -311 337 -39 41 -69 75 -68 75 1 1 37 20 80 43 235 125 433
299 556 487 47 72 354 384 379 385 7 0 27 -6 45 -14z m1199 -378 c-7 -7 -12
-8 -12 -2 0 14 12 26 19 19 2 -3 -1 -11 -7 -17z m-231 -152 c17 -36 2 -94 -31
-128 -41 -41 -52 -34 -28 18 14 33 19 60 15 90 -4 38 -2 44 14 44 11 0 24 -11
30 -24z m-5534 -458 c25 -23 30 -67 11 -86 -19 -19 -23 -14 -24 33 -1 25 -7
52 -14 60 -19 23 1 18 27 -7z m5261 -61 c-2 -15 -11 -23 -28 -25 -23 -2 -24
-1 -7 11 9 8 17 27 17 43 1 25 2 26 11 11 6 -10 9 -28 7 -40z m-5754 -229 c13
-30 43 -71 69 -95 90 -83 100 -128 14 -62 -29 21 -55 39 -59 39 -10 0 -55 100
-62 138 -9 49 11 39 38 -20z m6471 -507 c3 -5 0 -13 -6 -17 -7 -4 -9 -3 -5 4
3 5 0 13 -6 15 -9 4 -10 6 -1 6 6 1 14 -3 18 -8z m-48 -16 c0 -8 -4 -12 -9 -9
-5 3 -6 10 -3 15 9 13 12 11 12 -6z m63 -25 c-8 -5 -24 -9 -35 -9 -16 1 -16 2
5 9 35 11 48 11 30 0z m-85 -30 c3 -5 1 -10 -4 -10 -6 0 -11 5 -11 10 0 6 2
10 4 10 3 0 8 -4 11 -10z m101 -13 c11 -11 -19 -8 -36 3 -12 8 -10 9 7 7 12
-2 26 -6 29 -10z m-6054 -94 c3 1 9 0 12 -3 3 -3 -4 -6 -14 -7 -11 -1 -20 4
-20 10 0 7 -10 1 -21 -13 -11 -14 -17 -18 -13 -10 15 31 27 40 38 31 6 -5 14
-9 18 -8z m-57 -121 c-3 -3 0 -11 7 -19 8 -11 8 -17 -2 -26 -10 -9 -11 -9 -5
1 4 8 0 21 -9 31 -14 15 -14 18 -1 18 8 0 13 -3 10 -5z m117 -16 c6 4 6 -1 -1
-14 -7 -14 -7 -22 -1 -25 6 -3 5 -4 -1 -3 -7 1 -13 15 -14 31 -2 17 -1 24 2
17 3 -6 9 -9 15 -6z m-605 -68 c-3 -8 -6 -5 -6 6 -1 11 2 17 5 13 3 -3 4 -12
1 -19z m566 -9 c-8 -8 -13 -7 -18 2 -5 8 -4 10 3 5 7 -4 12 -2 12 5 0 7 3 9 7
6 4 -4 2 -12 -4 -18z m5124 -333 c0 -8 -6 -12 -15 -9 -11 5 -11 7 0 14 7 5 13
9 14 9 0 0 1 -6 1 -14z m43 -68 c0 -15 -15 -8 -28 12 -12 19 -11 20 8 8 11 -7
20 -16 20 -20z m40 -21 c-14 -8 -27 -12 -30 -10 -7 6 23 23 40 23 8 0 4 -6
-10 -13z m-115 -85 c-3 -3 -11 0 -18 7 -9 10 -8 11 6 5 10 -3 15 -9 12 -12z
m-5078 -342 c60 -36 77 -93 58 -199 -31 -177 -48 -412 -41 -579 6 -140 4 -168
-10 -198 -30 -62 -97 -95 -161 -79 -52 13 -172 164 -255 320 l-37 70 -2 -115
c-1 -63 -1 -125 0 -138 6 -69 -53 -142 -115 -142 -54 0 -93 26 -115 75 -36 82
-42 194 -29 530 15 368 14 366 112 395 34 10 87 -3 121 -30 33 -26 100 -128
164 -248 l50 -93 12 108 c17 148 38 251 56 280 40 60 131 81 192 43z m564 -93
c61 -41 77 -113 39 -175 -23 -37 -88 -71 -136 -72 -17 0 -46 -3 -63 -6 -28 -6
-31 -10 -31 -45 l0 -38 70 6 c113 9 173 -33 173 -122 0 -78 -64 -132 -183
-155 -29 -6 -55 -11 -56 -13 -2 -2 -1 -19 2 -38 6 -32 8 -34 42 -32 21 1 79 3
130 5 l93 3 35 -37 c40 -45 45 -94 14 -145 -28 -47 -64 -61 -191 -74 -176 -17
-276 3 -331 69 -46 55 -59 142 -58 410 1 336 13 404 77 448 27 18 62 22 299
32 28 1 52 -5 75 -21z m728 -81 c52 -28 71 -109 37 -161 -25 -39 -71 -56 -178
-68 -91 -10 -98 -13 -98 -33 0 -12 -3 -36 -7 -54 l-6 -33 82 6 c127 10 181
-22 181 -109 0 -86 -73 -133 -207 -134 l-83 0 0 -33 0 -34 83 -11 c45 -7 119
-12 165 -12 123 0 172 -33 172 -116 0 -51 -28 -90 -84 -115 -81 -37 -363 -17
-440 31 -91 56 -125 146 -112 304 16 208 38 424 47 457 19 76 90 110 264 129
92 9 146 5 184 -14z m467 -52 c132 -30 307 -138 384 -235 79 -100 105 -183 98
-309 -6 -98 -39 -171 -113 -245 -94 -94 -229 -138 -357 -116 -119 20 -149 28
-167 45 -36 33 -64 116 -72 218 -9 118 13 564 29 595 19 35 62 63 98 63 18 0
63 -7 100 -16z m1107 -97 c36 -16 95 -77 128 -135 l23 -39 39 59 c51 76 101
110 172 116 116 10 185 -71 230 -270 18 -79 74 -436 82 -525 l6 -63 -40 -40
c-37 -36 -45 -40 -93 -40 -47 0 -56 4 -90 38 -46 46 -55 74 -81 277 -27 217
-30 224 -54 144 -36 -123 -71 -168 -142 -183 -41 -9 -115 22 -138 58 -9 14
-32 65 -50 113 -38 102 -33 112 -59 -122 -20 -174 -29 -207 -67 -239 -52 -44
-122 -26 -153 38 -39 81 7 573 65 706 46 104 131 145 222 107z m1705 -143 c83
-23 271 -117 319 -158 55 -48 83 -108 83 -177 0 -80 -36 -148 -125 -235 -41
-41 -70 -76 -64 -80 5 -3 62 -23 126 -45 64 -21 126 -45 138 -53 31 -20 57
-79 49 -111 -7 -29 -55 -72 -90 -81 -55 -14 -283 56 -377 116 -55 35 -57 35
-57 14 0 -8 -13 -29 -29 -45 -54 -54 -133 -30 -170 50 -14 31 -16 84 -16 385
0 388 1 392 68 421 42 19 77 18 145 -1z m1035 -25 c52 -14 107 -71 107 -112 0
-45 -31 -90 -75 -111 -30 -15 -57 -18 -139 -15 l-101 4 -6 -75 c-3 -41 -4 -77
-2 -80 3 -3 53 -6 112 -6 123 -2 154 -12 188 -63 28 -42 29 -86 3 -128 -31
-52 -67 -64 -196 -66 l-114 -2 0 -37 c0 -36 1 -37 53 -47 28 -6 101 -15 161
-21 119 -12 153 -26 181 -73 39 -66 14 -144 -58 -180 -34 -17 -47 -18 -149 -7
-296 30 -386 67 -404 168 -3 20 -13 61 -21 90 -20 72 -19 341 1 531 26 239 41
253 270 245 83 -3 168 -9 189 -15z m-1504 -52 c50 -33 102 -110 133 -197 20
-58 23 -83 23 -240 0 -159 -2 -180 -23 -232 -29 -73 -96 -142 -168 -175 -49
-22 -66 -25 -138 -21 -90 5 -127 20 -181 73 -72 72 -105 177 -105 330 1 232
63 390 173 443 103 49 112 52 178 49 53 -2 75 -8 108 -30z m-3374 -774 c106
-55 245 -258 245 -359 0 -71 -60 -124 -139 -124 -83 0 -128 33 -174 129 l-30
64 -20 -24 c-70 -85 -127 -274 -127 -421 0 -114 38 -240 76 -255 28 -10 65 20
94 77 57 111 137 146 217 93 97 -64 84 -248 -23 -343 -162 -142 -422 -124
-550 38 -86 108 -115 194 -121 367 -8 208 26 360 116 517 84 147 158 227 236
256 45 17 153 9 200 -15z m1494 -127 c112 -13 116 -15 148 -49 18 -20 35 -48
39 -62 15 -62 -25 -140 -86 -165 -19 -8 -61 -11 -119 -8 l-89 4 -6 -50 c-3
-28 -6 -75 -6 -105 l0 -53 58 8 c133 20 199 -6 223 -85 34 -116 -54 -201 -208
-201 -78 0 -76 4 -68 -181 6 -155 5 -166 -15 -197 -42 -68 -130 -77 -194 -21
-45 39 -64 91 -76 202 -20 187 -5 795 20 863 14 35 45 70 85 95 37 23 127 25
294 5z m784 -139 c55 -36 75 -123 43 -185 -24 -47 -74 -71 -173 -84 -48 -7
-91 -17 -95 -22 -4 -6 -8 -37 -8 -68 l0 -57 90 2 89 2 37 -37 c30 -29 38 -45
41 -85 9 -98 -58 -157 -193 -169 l-71 -7 -5 -131 c-5 -145 -18 -189 -64 -225
-24 -19 -38 -22 -77 -18 -60 5 -89 32 -119 106 -22 54 -23 67 -22 336 1 325
19 514 54 570 24 39 68 73 108 84 15 4 97 7 182 7 131 -1 160 -4 183 -19z
m834 -39 c47 -48 56 -108 22 -167 -34 -62 -79 -79 -224 -85 l-120 -5 -3 -71
-3 -70 88 0 c70 0 95 -4 120 -20 89 -54 82 -187 -14 -242 -20 -12 -61 -21
-117 -25 l-86 -6 -2 -48 c-4 -106 -19 -93 121 -101 165 -9 213 -21 250 -64 43
-48 49 -93 20 -151 -36 -71 -72 -86 -183 -78 -48 4 -157 10 -241 14 -179 9
-206 19 -244 94 l-23 48 11 218 c6 120 11 308 11 417 0 210 7 262 38 303 42
57 72 65 262 72 267 10 275 9 317 -33z m-2386 1 c63 -14 131 -72 172 -146 87
-161 110 -502 43 -648 -67 -147 -210 -210 -360 -159 -70 24 -149 101 -191 187
-62 126 -78 256 -50 411 20 115 52 171 149 264 104 100 137 112 237 91z m2876
-105 c82 -9 163 -23 182 -32 90 -42 93 -171 5 -229 -29 -19 -96 -22 -229 -13
l-70 5 -5 -67 -5 -67 40 -5 c22 -3 65 -8 95 -12 46 -5 61 -13 94 -45 37 -37
38 -42 34 -90 -4 -40 -12 -58 -37 -82 -31 -32 -33 -32 -131 -32 l-100 0 0 -56
0 -57 153 -4 c116 -3 159 -8 184 -21 102 -54 102 -198 -2 -246 -35 -17 -60
-19 -212 -16 -165 2 -175 4 -229 30 -47 23 -60 35 -76 72 -30 67 -47 165 -54
313 -7 142 10 493 27 546 14 46 71 95 126 110 61 16 41 16 210 -2z"/>
<path d="M4690 7888 c-26 -14 -57 -41 -75 -66 -27 -39 -30 -52 -30 -115 0 -60
5 -83 31 -137 46 -95 93 -143 182 -187 73 -37 80 -38 181 -38 120 0 163 15
234 84 58 54 81 105 74 163 -21 176 -230 318 -467 318 -69 0 -94 -4 -130 -22z
m220 -38 c76 -14 151 -51 204 -100 65 -60 86 -98 87 -160 2 -46 -2 -55 -32
-87 -66 -68 -149 -93 -246 -73 -75 16 -119 39 -165 87 -59 62 -83 118 -83 195
0 60 3 70 30 98 45 47 105 59 205 40z"/>
<path d="M4560 7454 c0 -52 111 -149 184 -161 55 -9 44 14 -25 51 -30 17 -75
52 -101 78 -51 52 -58 56 -58 32z"/>
<path d="M4457 7424 c-36 -36 53 -164 139 -200 73 -31 73 -3 1 46 -45 30 -80
72 -122 144 -6 10 -13 14 -18 10z"/>
<path d="M5545 7399 c-4 -6 -4 -13 -1 -16 11 -12 118 -44 125 -38 3 4 -9 20
-27 36 -33 30 -84 39 -97 18z"/>
<path d="M6223 7380 c-66 -40 -32 -48 67 -16 19 6 35 16 35 21 0 19 -69 16
-102 -5z"/>
<path d="M5149 7300 c-26 -4 -66 -17 -90 -27 -96 -43 -328 -240 -407 -346 -20
-27 -57 -86 -82 -131 -39 -69 -52 -84 -92 -104 -25 -13 -72 -26 -105 -28 -95
-8 -103 -12 -119 -49 -21 -50 0 -98 50 -115 20 -6 36 -14 36 -16 0 -2 -11 -21
-24 -42 -33 -50 -40 -84 -27 -125 16 -48 48 -74 106 -87 44 -9 59 -20 135 -99
107 -112 127 -120 274 -103 55 6 135 20 176 31 69 17 78 17 105 3 20 -10 54
-14 104 -14 l74 2 46 -49 c55 -59 77 -71 128 -71 44 0 57 9 97 63 15 20 34 37
42 37 8 0 36 -19 62 -43 77 -71 103 -87 138 -87 34 0 59 17 69 50 3 11 -7 59
-25 110 -17 50 -29 94 -26 99 3 5 40 -4 81 -20 208 -81 366 -50 515 101 127
130 206 297 217 460 16 257 -109 431 -359 500 -68 19 -101 21 -295 19 l-218
-2 -200 41 c-218 45 -315 55 -386 42z m386 -86 c170 -37 171 -38 415 -38 240
-1 246 -2 310 -27 60 -24 65 -29 64 -55 -1 -16 -7 -42 -13 -58 l-12 -29 -287
7 c-158 4 -341 11 -407 16 -66 5 -217 10 -335 10 -212 0 -366 11 -396 28 -29
16 176 162 259 183 63 16 227 1 402 -37z m99 -505 c71 -56 74 -152 6 -207 -8
-6 -57 -37 -107 -68 -102 -62 -172 -131 -192 -190 l-13 -39 -120 -33 c-67 -17
-123 -30 -126 -27 -8 8 36 133 79 224 60 129 178 274 268 333 38 24 55 28 112
28 52 0 72 -4 93 -21z m-1136 -71 c-11 -32 -98 -72 -173 -80 -25 -3 -31 1 -33
21 -5 30 12 40 68 42 25 0 63 6 85 14 53 17 57 17 53 3z m1254 -480 c-1 -14 9
-56 23 -93 32 -86 33 -125 4 -125 -17 0 -19 3 -10 13 8 10 2 31 -24 86 -34 71
-41 103 -29 136 11 27 39 13 36 -17z m-148 -81 c16 -12 14 -13 -18 -9 -36 4
-59 -12 -114 -82 -7 -9 -26 -16 -43 -16 l-30 0 28 31 c82 90 80 89 120 89 22
0 47 -6 57 -13z"/>
<path d="M4345 3208 c-3 -35 -5 -115 -3 -178 3 -114 3 -115 28 -118 73 -11
154 53 165 132 9 55 2 78 -38 123 -27 31 -126 103 -141 103 -2 0 -7 -28 -11
-62z"/>
<path d="M7158 2953 c-2 -43 -2 -80 -1 -82 9 -14 123 70 123 90 0 8 -98 69
-112 69 -3 0 -8 -35 -10 -77z"/>
<path d="M6507 3018 c-40 -63 -51 -110 -51 -238 -1 -96 2 -121 17 -143 14 -22
23 -26 40 -21 54 16 83 97 81 234 -1 94 -26 199 -50 207 -5 2 -22 -16 -37 -39z"/>
<path d="M3911 1903 c-38 -31 -53 -216 -30 -366 12 -82 30 -117 60 -117 61 0
78 41 86 210 7 147 -7 231 -43 266 -28 29 -44 30 -73 7z"/>
</g>
</svg>
